HIERARCHY
ROOT Hips
{
  OFFSET 155.048 98.1286 3.93448
  CHANNELS 6 Xposition Yposition Zposition Zrotation Xrotation Yrotation
  JOINT RightUpLeg
  {
    OFFSET -8.9458 -8.66707 0.101652
    CHANNELS 3 Zrotation Xrotation Yrotation
    JOINT RightLeg
    {
      OFFSET 0 -44.4227 1.3727
      CHANNELS 3 Zrotation Xrotation Yrotation
      JOINT RightFoot
      {
        OFFSET 0.253549 -42.0924 -1.46059
        CHANNELS 3 Zrotation Xrotation Yrotation
        JOINT RightToes
        {
          OFFSET 0.04 -4.41509 8.4991
          CHANNELS 3 Zrotation Xrotation Yrotation
          End Site
          {
            OFFSET -0.08 -0.137448 9.77979
          }
        }
      }
    }
  }
  JOINT Spine
  {
    OFFSET 0 11.8905 0
    CHANNELS 3 Zrotation Xrotation Yrotation
    JOINT Spine1
    {
      OFFSET 0 25.6574 0.127663
      CHANNELS 3 Zrotation Xrotation Yrotation
      JOINT Head
      {
        OFFSET 0 8.73416 0.011341
        CHANNELS 3 Zrotation Xrotation Yrotation
        End Site
        {
          OFFSET -0.29 12.7742 2.51395
        }
      }
      JOINT LeftShoulder1
      {
        OFFSET 8.99 -0.362252 -0.22
        CHANNELS 3 Zrotation Xrotation Yrotation
        JOINT LeftArm
        {
          OFFSET 10.2827 -0.00337999 0.322123
          CHANNELS 3 Zrotation Xrotation Yrotation
          JOINT LeftForeArm
          {
            OFFSET 26.2597 0.099144 -1.42434
            CHANNELS 3 Zrotation Xrotation Yrotation
            JOINT LeftHand
            {
              OFFSET 22.0902 0.085362 1.02216
              CHANNELS 3 Zrotation Xrotation Yrotation
              End Site
              {
                OFFSET 13.419 -0.6 1.50291
              }
            }
          }
        }
      }
      JOINT RightShoulder
      {
        OFFSET -8.99 -0.362252 -0.22
        CHANNELS 3 Zrotation Xrotation Yrotation
        JOINT RightArm
        {
          OFFSET -10.2827 -0.00338 0.322123
          CHANNELS 3 Zrotation Xrotation Yrotation
          JOINT RightForeArm
          {
            OFFSET -26.364 0.099144 -1.42434
            CHANNELS 3 Zrotation Xrotation Yrotation
            JOINT RightHand
            {
              OFFSET -22.0324 0.085362 1.02216
              CHANNELS 3 Zrotation Xrotation Yrotation
              End Site
              {
                OFFSET -13.3284 -0.6 1.50291
              }
            }
          }
        }
      }
    }
  }
  JOINT LeftUpLeg
  {
    OFFSET 8.9458 -8.66707 0.101652
    CHANNELS 3 Zrotation Xrotation Yrotation
    JOINT LeftLeg
    {
      OFFSET 0 -44.4227 1.3727
      CHANNELS 3 Zrotation Xrotation Yrotation
      JOINT LeftFoot
      {
        OFFSET -0.253549 -42.0924 -1.46059
        CHANNELS 3 Zrotation Xrotation Yrotation
        JOINT LeftToes
        {
          OFFSET -0.04 -4.41509 8.4991
          CHANNELS 3 Zrotation Xrotation Yrotation
          End Site
          {
            OFFSET 0.08 -0.047448 9.77979
          }
        }
      }
    }
  }
}
MOTION
Frames:	12
Frame Time:	0.0333333
169.092 99.1899 3.46916 1.92608 1.17912e-016 -90 -1.02934 -9.12981 0.124334 -2.02181 19.6821 -13.5671 5.64003 -11.3967 -0.00634057 0.0462048 0.000530889 0.662642 3.90661 -3.73438 0.731976 -3.70928 22.6152 1.7603 0.0332262 -8.11032 -0.448214 -39.6963 8.50633 -14.8844 -38.5554 -48.4581 -0.778718 -15.2343 31.3046 1.83063 23.4447 8.86802 0.213145 49.7583 12.9746 18.6738 18.1058 -44.5075 -12.4475 7.17877 31.4972 6.27085 -6.99237 9.44768 2.97699 -2.00724 -8.42604 -0.718681 2.91981 18.7913 15.0606 -4.41112 -11.7249 -0.103174 -1.28794e-009 8.7526e-006 -1.47187e-008 
169.098 99.1808 3.48577 2.53622 1.55243e-016 -90 -1.03666 -9.82644 0.217388 -1.99081 19.7554 -13.7481 5.70527 -11.3541 -0.00633962 0.0462048 0.000530889 0.662642 3.87997 -2.06217 0.695896 -3.68855 21.3973 1.75314 0.0785349 -8.6303 -0.787818 -39.2712 8.35949 -14.7459 -36.3969 -47.9761 3.6152 -15.0995 29.1037 0.841859 23.216 8.95484 0.605285 49.1761 12.6097 18.2985 17.9359 -44.745 -15.9505 6.97617 29.9656 6.6302 -7.62983 9.45684 2.12406 -2.0966 -9.12918 -1.16711 3.00863 18.8634 15.328 -4.58528 -11.735 -0.109845 -1.28794e-009 8.7526e-006 -1.47187e-008 
169.177 99.1514 3.52983 3.9849 -0.0996137 -89.94 -1.1525 -11.5837 0.541137 -1.91464 19.9929 -14.0658 5.79812 -11.2705 -0.00633777 0.0462048 0.000530889 0.662642 3.83443 1.28949 0.564898 -3.74763 18.5477 1.70171 0.332709 -9.30144 -1.02275 -38.4081 7.995 -14.3091 -32.8453 -46.6995 11.6507 -14.9427 24.8121 -0.819194 22.9046 8.96999 0.613874 47.8002 11.8562 17.5662 17.8064 -45.0706 -22.419 6.62361 27.4535 7.31686 -8.30421 9.45984 1.33849 -2.34819 -10.8405 -1.96909 3.08385 19.0819 15.9188 -4.87226 -11.8271 -0.123614 -1.28794e-009 8.7526e-006 -1.47187e-008 
169.407 99.0675 3.57402 6.03213 -0.208107 -90.1135 -1.32508 -14.2986 1.08037 -1.73699 20.5886 -14.447 5.92096 -11.2343 -0.00633698 0.0462048 0.000530889 0.662642 3.87664 4.97121 0.442236 -4.09862 15.1341 1.75083 0.825802 -9.9913 -1.06511 -37.1284 7.46961 -13.6572 -29.9493 -45.5863 19.4585 -14.909 21.4973 -1.85477 22.8701 8.88307 0.153079 46.0685 10.9774 16.7028 18.037 -45.6249 -28.767 6.18898 25.2375 7.86817 -8.33553 9.41352 2.06504 -2.65526 -13.4152 -2.98199 3.05672 19.5563 16.8714 -5.12416 -11.7816 -0.131083 -1.28794e-009 8.7526e-006 -1.47187e-008 
169.748 98.9179 3.61175 8.3795 -0.347094 -90.1637 -1.48974 -17.5456 1.7035 -1.49492 21.4787 -15.1086 6.01415 -11.2068 -0.00671956 0.0462048 0.000530889 0.662642 4.2082 8.39323 0.284152 -5.03485 11.961 1.93619 1.5473 -10.832 -1.28529 -35.1911 6.81414 -12.9128 -27.6097 -45.652 26.1667 -14.978 21.728 -1.44225 23.1937 8.80506 -0.170889 44.5011 10.1713 15.8336 18.589 -46.3765 -34.0115 5.82866 22.912 8.08429 -7.98638 9.38213 2.93668 -3.04529 -16.5636 -4.46434 2.99706 20.3579 18.2812 -5.33966 -11.5849 -0.130836 -1.28794e-009 8.7526e-006 -1.47187e-008 
170.133 98.6856 3.67086 11.0184 -0.308418 -89.8987 -1.50919 -21.2167 2.34867 -1.25246 22.6106 -16.1172 6.06477 -11.1966 -0.00543303 0.0462048 0.000530889 0.662642 5.07353 11.8841 -0.114287 -6.45109 8.82247 2.02876 2.29754 -12.1509 -1.76394 -32.7193 6.08722 -12.115 -25.7084 -45.4832 32.3254 -15.3257 23.9953 -0.408286 23.6703 8.77305 -0.213473 43.1989 9.47758 15.0092 19.3092 -46.8882 -38.522 5.67346 20.68 8.08301 -7.5426 9.45656 2.18263 -3.42819 -20.3027 -6.7499 2.81438 21.6703 20.1125 -5.65413 -11.6992 -0.147015 -1.28794e-009 8.7526e-006 -1.47187e-008 
170.588 98.2892 3.74596 14.1548 -0.191527 -89.6377 -1.55497 -25.8032 2.78678 -1.04055 24.3874 -16.8076 6.22872 -11.4509 0.0122137 0.0462048 0.000530889 0.662642 5.89915 15.6315 -0.646269 -7.51506 5.614 1.89564 2.65942 -14.5165 -2.07267 -30.5025 5.46435 -11.3734 -26.5564 -42.2837 36.6492 -15.8037 23.3526 -1.14138 24.0089 8.85317 0.267425 41.953 8.86091 14.2653 20.2086 -46.8455 -42.0846 5.53686 20.6776 8.02248 -6.88701 9.53347 1.55303 -3.82881 -24.9546 -9.55505 2.1728 23.7045 22.2244 -6.12369 -12.3068 -0.193165 -1.28794e-009 8.7526e-006 -1.47187e-008 
171.126 97.6411 3.79832 17.6069 -0.353559 -89.6615 -1.85039 -31.3279 2.60604 -0.991249 27.1821 -16.5705 6.57375 -12.1613 0.0607082 0.0462048 0.000530889 0.662642 5.97172 19.0467 -0.901534 -7.54692 3.46823 1.72948 2.12961 -18.5002 -2.51503 -29.2148 5.14883 -11.0208 -32.3035 -35.1805 37.4972 -15.9837 16.7532 -4.65169 23.7083 9.09767 1.43536 41.0105 8.41629 13.7173 21.293 -46.2083 -44.0516 5.26627 23.858 8.25033 -6.19794 9.49137 3.40544 -4.3829 -30.41 -11.4194 1.32922 26.5161 23.6226 -6.65008 -13.1001 -0.256667 -1.28794e-009 8.7526e-006 -1.47187e-008 
171.638 96.7359 3.84342 20.5507 -0.323071 -89.4688 -1.92753 -36.5917 2.16961 -1.02944 30.6995 -16.2725 6.93541 -13.2675 0.136059 0.0462048 0.000530889 0.662642 6.36243 22.3274 -1.01765 -7.25309 2.74408 1.69897 1.1361 -23.1962 -3.42109 -28.417 5.12386 -11.2739 -39.5296 -27.4207 37.1358 -16.1481 8.64863 -8.53245 22.5857 9.28761 2.22334 40.8995 8.29412 13.5044 22.489 -44.8672 -44.817 4.96029 27.6868 9.38022 -5.87544 9.41649 5.73155 -4.75438 -35.8756 -11.3588 1.23244 30.3863 23.0337 -7.33683 -14.443 -0.371062 -1.28794e-009 8.7526e-006 -1.47187e-008 
172.052 95.5716 3.86129 22.3468 0.905979 -89.3433 -0.693127 -40.6386 2.24754 -1.07424 34.5261 -16.3282 7.29391 -14.781 0.242949 0.0462048 0.000530889 0.662642 8.52699 27.4434 -1.57721 -7.94351 1.03828 1.94032 0.502923 -27.0043 -4.43513 -27.142 5.12252 -11.814 -45.533 -21.3235 37.6299 -16.3047 2.89369 -11.4004 21.4771 9.25883 1.89176 41.3488 8.42411 13.6033 23.6111 -43.0868 -45.5831 4.69862 29.0148 11.1308 -4.97821 9.50934 5.42215 -4.12053 -40.7502 -11.1039 1.28388 35.7688 22.0448 -8.48418 -17.5002 -0.65851 -1.28794e-009 8.7526e-006 -1.47187e-008 
172.305 94.0272 3.69318 23.8868 2.24089 -90.1293 1.62526 -44.7317 3.27119 -1.11224 39.1051 -15.9163 7.90307 -17.0123 0.426927 0.0462048 0.000530889 0.662642 10.203 34.5498 -2.09358 -8.89242 -3.31333 2.62709 0.721553 -29.4126 -4.38095 -25.6651 5.00037 -12.1129 -52.744 -14.1215 38.6355 -16.5643 -4.07379 -15.377 21.1993 9.22586 1.65738 41.4431 8.539 13.8045 23.4637 -42.1747 -47.2397 4.93919 27.1506 11.8585 -2.37073 9.78951 2.27176 -2.48492 -45.5938 -9.92594 1.3509 42.1226 20.6486 -9.69327 -22.0928 -1.14051 -1.28794e-009 8.7526e-006 -1.47187e-008 
172.157 92.0705 3.37176 25.5842 2.9005 -91.2505 3.85011 -49.2381 4.56252 -1.18965 44.7458 -15.0493 8.81891 -20.0666 0.728039 0.0462048 0.000530889 0.662642 9.29373 41.5872 -1.61585 -8.10632 -8.51801 3.38333 1.1165 -31.4054 -3.19314 -25.7963 5.04347 -12.1872 -58.7788 -7.27491 39.7173 -17.087 -9.96345 -19.5688 20.6448 9.33607 2.18973 41.1991 8.61441 14.0555 21.0472 -42.6087 -49.3538 5.5293 23.9185 11.2503 -0.0484064 9.93005 -0.435875 -1.07118 -50.2941 -8.59534 1.48731 48.5585 19.521 -9.98967 -26.2916 -1.54333 -1.28794e-009 8.7526e-006 -1.47187e-008 
